<svg width="85" height="15" viewBox="0 0 85 15" fill="none" xmlns="http://www.w3.org/2000/svg">
<mask id="path-1-outside-1_4_14" maskUnits="userSpaceOnUse" x="-1" y="0" width="88" height="16" fill="black">
<rect fill="white" x="-1" width="88" height="16"/>
<path d="M1.638 11.58H6.79L3.822 3.418L0.7 12H0.252L3.822 2.186L7.392 12H1.638V11.58ZM11.8286 11.58H17.2326V4.468L14.0826 7.618L10.9326 4.468V12L10.5126 11.986V3.88H10.9326L14.0826 7.03L17.2326 3.88H17.6526V12L11.8286 11.986V11.58ZM27.2873 11.174C26.774 11.818 25.934 12.14 24.7673 12.14C23.6006 12.14 22.7653 11.8087 22.2613 11.146C21.7573 10.4833 21.5053 9.41467 21.5053 7.94C21.5053 6.46533 21.7573 5.39667 22.2613 4.734C22.7653 4.07133 23.6006 3.74 24.7673 3.74C26.1206 3.74 27.04 4.18333 27.5253 5.07L24.0953 7.94H23.4373L26.9793 4.986C26.5686 4.43533 25.8313 4.16 24.7673 4.16C24.3006 4.16 23.9086 4.21133 23.5913 4.314C23.274 4.40733 22.98 4.58933 22.7093 4.86C22.448 5.12133 22.252 5.50867 22.1213 6.022C21.9906 6.526 21.9253 7.16533 21.9253 7.94C21.9253 8.71467 21.9906 9.35867 22.1213 9.872C22.252 10.376 22.448 10.7633 22.7093 11.034C22.98 11.2953 23.274 11.4773 23.5913 11.58C23.9086 11.6733 24.3006 11.72 24.7673 11.72C25.8313 11.72 26.5686 11.4447 26.9793 10.894L27.2873 11.174ZM31.5552 3.88H36.9732L33.6832 11.65V14.8H33.2632V11.65L29.9732 3.88H30.4212L33.4732 11.062L36.3432 4.3H31.5552V3.88ZM40.8257 11.58H45.3898L42.5198 4.818L39.4677 12H39.0197L42.5198 3.74L46.0198 12H40.8257V11.58ZM55.9739 11.58H60.3139L55.3019 2.914V12H54.8819V2.2H55.3719L60.6079 11.258V2.2H61.0279V12H55.9739V11.58ZM66.0219 11.58H70.5859L67.7159 4.818L64.6639 12H64.2159L67.7159 3.74L71.2159 12H66.0219V11.58ZM74.3531 3.88H74.7731V12H74.3531V3.88ZM78.9693 12V3.88H79.3893V12H78.9693ZM84.1493 12L79.8373 7.716L83.7013 3.88H84.3033L80.4393 7.716L84.7513 12H84.1493Z"/>
</mask>
<path d="M1.638 11.58H6.79L3.822 3.418L0.7 12H0.252L3.822 2.186L7.392 12H1.638V11.58ZM11.8286 11.58H17.2326V4.468L14.0826 7.618L10.9326 4.468V12L10.5126 11.986V3.88H10.9326L14.0826 7.03L17.2326 3.88H17.6526V12L11.8286 11.986V11.58ZM27.2873 11.174C26.774 11.818 25.934 12.14 24.7673 12.14C23.6006 12.14 22.7653 11.8087 22.2613 11.146C21.7573 10.4833 21.5053 9.41467 21.5053 7.94C21.5053 6.46533 21.7573 5.39667 22.2613 4.734C22.7653 4.07133 23.6006 3.74 24.7673 3.74C26.1206 3.74 27.04 4.18333 27.5253 5.07L24.0953 7.94H23.4373L26.9793 4.986C26.5686 4.43533 25.8313 4.16 24.7673 4.16C24.3006 4.16 23.9086 4.21133 23.5913 4.314C23.274 4.40733 22.98 4.58933 22.7093 4.86C22.448 5.12133 22.252 5.50867 22.1213 6.022C21.9906 6.526 21.9253 7.16533 21.9253 7.94C21.9253 8.71467 21.9906 9.35867 22.1213 9.872C22.252 10.376 22.448 10.7633 22.7093 11.034C22.98 11.2953 23.274 11.4773 23.5913 11.58C23.9086 11.6733 24.3006 11.72 24.7673 11.72C25.8313 11.72 26.5686 11.4447 26.9793 10.894L27.2873 11.174ZM31.5552 3.88H36.9732L33.6832 11.65V14.8H33.2632V11.65L29.9732 3.88H30.4212L33.4732 11.062L36.3432 4.3H31.5552V3.88ZM40.8257 11.58H45.3898L42.5198 4.818L39.4677 12H39.0197L42.5198 3.74L46.0198 12H40.8257V11.58ZM55.9739 11.58H60.3139L55.3019 2.914V12H54.8819V2.2H55.3719L60.6079 11.258V2.2H61.0279V12H55.9739V11.58ZM66.0219 11.58H70.5859L67.7159 4.818L64.6639 12H64.2159L67.7159 3.74L71.2159 12H66.0219V11.58ZM74.3531 3.88H74.7731V12H74.3531V3.88ZM78.9693 12V3.88H79.3893V12H78.9693ZM84.1493 12L79.8373 7.716L83.7013 3.88H84.3033L80.4393 7.716L84.7513 12H84.1493Z" class="logo-inner" fill="grey"/>
<path d="M1.638 11.58V10.98H1.038V11.58H1.638ZM6.79 11.58V12.18H7.64662L7.35388 11.375L6.79 11.58ZM3.822 3.418L4.38588 3.21295L3.82211 1.66261L3.25815 3.21288L3.822 3.418ZM0.7 12V12.6H1.1202L1.26385 12.2051L0.7 12ZM0.252 12L-0.311853 11.7949L-0.604724 12.6H0.252V12ZM3.822 2.186L4.38585 1.98089L3.822 0.430847L3.25815 1.98089L3.822 2.186ZM7.392 12V12.6H8.24872L7.95585 11.7949L7.392 12ZM1.638 12H1.038V12.6H1.638V12ZM1.638 12.18H6.79V10.98H1.638V12.18ZM7.35388 11.375L4.38588 3.21295L3.25812 3.62305L6.22612 11.785L7.35388 11.375ZM3.25815 3.21288L0.136151 11.7949L1.26385 12.2051L4.38585 3.62312L3.25815 3.21288ZM0.7 11.4H0.252V12.6H0.7V11.4ZM0.815853 12.2051L4.38585 2.39111L3.25815 1.98089L-0.311853 11.7949L0.815853 12.2051ZM3.25815 2.39111L6.82815 12.2051L7.95585 11.7949L4.38585 1.98089L3.25815 2.39111ZM7.392 11.4H1.638V12.6H7.392V11.4ZM2.238 12V11.58H1.038V12H2.238ZM11.8286 11.58V10.98H11.2286V11.58H11.8286ZM17.2326 11.58V12.18H17.8326V11.58H17.2326ZM17.2326 4.468H17.8326V3.01947L16.8083 4.04374L17.2326 4.468ZM14.0826 7.618L13.6583 8.04226L14.0826 8.46653L14.5068 8.04226L14.0826 7.618ZM10.9326 4.468L11.3568 4.04374L10.3326 3.01947V4.468H10.9326ZM10.9326 12L10.9126 12.5997L11.5326 12.6203V12H10.9326ZM10.5126 11.986H9.91258V12.5663L10.4926 12.5857L10.5126 11.986ZM10.5126 3.88V3.28H9.91258V3.88H10.5126ZM10.9326 3.88L11.3568 3.45574L11.1811 3.28H10.9326V3.88ZM14.0826 7.03L13.6583 7.45426L14.0826 7.87853L14.5068 7.45426L14.0826 7.03ZM17.2326 3.88V3.28H16.9841L16.8083 3.45574L17.2326 3.88ZM17.6526 3.88H18.2526V3.28H17.6526V3.88ZM17.6526 12L17.6511 12.6L18.2526 12.6014V12H17.6526ZM11.8286 11.986H11.2286V12.5846L11.8271 12.586L11.8286 11.986ZM11.8286 12.18H17.2326V10.98H11.8286V12.18ZM17.8326 11.58V4.468H16.6326V11.58H17.8326ZM16.8083 4.04374L13.6583 7.19374L14.5068 8.04226L17.6568 4.89226L16.8083 4.04374ZM14.5068 7.19374L11.3568 4.04374L10.5083 4.89226L13.6583 8.04226L14.5068 7.19374ZM10.3326 4.468V12H11.5326V4.468H10.3326ZM10.9526 11.4003L10.5326 11.3863L10.4926 12.5857L10.9126 12.5997L10.9526 11.4003ZM11.1126 11.986V3.88H9.91258V11.986H11.1126ZM10.5126 4.48H10.9326V3.28H10.5126V4.48ZM10.5083 4.30426L13.6583 7.45426L14.5068 6.60574L11.3568 3.45574L10.5083 4.30426ZM14.5068 7.45426L17.6568 4.30426L16.8083 3.45574L13.6583 6.60574L14.5068 7.45426ZM17.2326 4.48H17.6526V3.28H17.2326V4.48ZM17.0526 3.88V12H18.2526V3.88H17.0526ZM17.654 11.4L11.83 11.386L11.8271 12.586L17.6511 12.6L17.654 11.4ZM12.4286 11.986V11.58H11.2286V11.986H12.4286ZM27.2873 11.174L27.7565 11.548L28.107 11.1083L27.6909 10.73L27.2873 11.174ZM22.2613 11.146L22.7389 10.7828L22.7389 10.7828L22.2613 11.146ZM22.2613 4.734L21.7837 4.37078L21.7837 4.37078L22.2613 4.734ZM27.5253 5.07L27.9103 5.53016L28.2882 5.21403L28.0516 4.78191L27.5253 5.07ZM24.0953 7.94V8.54H24.3132L24.4803 8.40016L24.0953 7.94ZM23.4373 7.94L23.053 7.47922L21.7811 8.54H23.4373V7.94ZM26.9793 4.986L27.3636 5.44678L27.8 5.08283L27.4603 4.6273L26.9793 4.986ZM23.5913 4.314L23.7606 4.88962L23.7683 4.88735L23.776 4.88487L23.5913 4.314ZM22.7093 4.86L22.285 4.43574L22.285 4.43574L22.7093 4.86ZM22.1213 6.022L22.7021 6.17258L22.7028 6.17001L22.1213 6.022ZM22.1213 9.872L21.5398 10.02L21.5405 10.0226L22.1213 9.872ZM22.7093 11.034L22.2777 11.4508L22.285 11.4583L22.2926 11.4656L22.7093 11.034ZM23.5913 11.58L23.4066 12.1509L23.4143 12.1533L23.422 12.1556L23.5913 11.58ZM26.9793 10.894L27.3829 10.45L26.8936 10.0052L26.4983 10.5353L26.9793 10.894ZM26.8181 10.8C26.4605 11.2487 25.8312 11.54 24.7673 11.54V12.74C26.0368 12.74 27.0875 12.3873 27.7565 11.548L26.8181 10.8ZM24.7673 11.54C23.7082 11.54 23.0885 11.2425 22.7389 10.7828L21.7837 11.5092C22.4421 12.3749 23.4931 12.74 24.7673 12.74V11.54ZM22.7389 10.7828C22.3554 10.2786 22.1053 9.37326 22.1053 7.94H20.9053C20.9053 9.45607 21.1592 10.6881 21.7837 11.5092L22.7389 10.7828ZM22.1053 7.94C22.1053 6.50674 22.3554 5.60141 22.7389 5.09722L21.7837 4.37078C21.1592 5.19192 20.9053 6.42393 20.9053 7.94H22.1053ZM22.7389 5.09722C23.0885 4.63753 23.7082 4.34 24.7673 4.34V3.14C23.4931 3.14 22.4421 3.50513 21.7837 4.37078L22.7389 5.09722ZM24.7673 4.34C25.9867 4.34 26.6544 4.72848 26.999 5.35809L28.0516 4.78191C27.4256 3.63818 26.2546 3.14 24.7673 3.14V4.34ZM27.1403 4.60984L23.7103 7.47984L24.4803 8.40016L27.9103 5.53016L27.1403 4.60984ZM24.0953 7.34H23.4373V8.54H24.0953V7.34ZM23.8216 8.40078L27.3636 5.44678L26.595 4.52522L23.053 7.47922L23.8216 8.40078ZM27.4603 4.6273C26.8851 3.85599 25.9143 3.56 24.7673 3.56V4.76C25.7483 4.76 26.2522 5.01467 26.4983 5.34469L27.4603 4.6273ZM24.7673 3.56C24.261 3.56 23.8022 3.61517 23.4066 3.74313L23.776 4.88487C24.0151 4.8075 24.3403 4.76 24.7673 4.76V3.56ZM23.422 3.73838C22.9942 3.86421 22.6155 4.10532 22.285 4.43574L23.1336 5.28426C23.3445 5.07334 23.5538 4.95045 23.7606 4.88962L23.422 3.73838ZM22.285 4.43574C21.9213 4.79946 21.6862 5.29889 21.5399 5.87399L22.7028 6.17001C22.8177 5.71845 22.9746 5.44321 23.1336 5.28426L22.285 4.43574ZM21.5405 5.87142C21.3925 6.4422 21.3253 7.13667 21.3253 7.94H22.5253C22.5253 7.194 22.5888 6.6098 22.7021 6.17258L21.5405 5.87142ZM21.3253 7.94C21.3253 8.74384 21.3926 9.44165 21.5399 10.02L22.7028 9.72399C22.5887 9.27568 22.5253 8.6855 22.5253 7.94H21.3253ZM21.5405 10.0226C21.6876 10.5901 21.9222 11.0826 22.2777 11.4508L23.141 10.6172C22.9738 10.4441 22.8163 10.1619 22.7021 9.72142L21.5405 10.0226ZM22.2926 11.4656C22.6205 11.7823 22.9918 12.0167 23.4066 12.1509L23.776 11.0091C23.5562 10.938 23.3395 10.8084 23.1261 10.6024L22.2926 11.4656ZM23.422 12.1556C23.8117 12.2702 24.2649 12.32 24.7673 12.32V11.12C24.3364 11.12 24.0056 11.0764 23.7606 11.0044L23.422 12.1556ZM24.7673 12.32C25.9143 12.32 26.8851 12.024 27.4603 11.2527L26.4983 10.5353C26.2522 10.8653 25.7483 11.12 24.7673 11.12V12.32ZM26.5757 11.338L26.8837 11.618L27.6909 10.73L27.3829 10.45L26.5757 11.338ZM31.5552 3.88V3.28H30.9552V3.88H31.5552ZM36.9732 3.88L37.5257 4.11395L37.8789 3.28H36.9732V3.88ZM33.6832 11.65L33.1307 11.4161L33.0832 11.5282V11.65H33.6832ZM33.6832 14.8V15.4H34.2832V14.8H33.6832ZM33.2632 14.8H32.6632V15.4H33.2632V14.8ZM33.2632 11.65H33.8632V11.5282L33.8157 11.4161L33.2632 11.65ZM29.9732 3.88V3.28H29.0676L29.4207 4.11395L29.9732 3.88ZM30.4212 3.88L30.9734 3.64534L30.8182 3.28H30.4212V3.88ZM33.4732 11.062L32.921 11.2967L33.4736 12.5969L34.0255 11.2964L33.4732 11.062ZM36.3432 4.3L36.8955 4.53442L37.2497 3.7H36.3432V4.3ZM31.5552 4.3H30.9552V4.9H31.5552V4.3ZM31.5552 4.48H36.9732V3.28H31.5552V4.48ZM36.4207 3.64605L33.1307 11.4161L34.2357 11.8839L37.5257 4.11395L36.4207 3.64605ZM33.0832 11.65V14.8H34.2832V11.65H33.0832ZM33.6832 14.2H33.2632V15.4H33.6832V14.2ZM33.8632 14.8V11.65H32.6632V14.8H33.8632ZM33.8157 11.4161L30.5257 3.64605L29.4207 4.11395L32.7107 11.8839L33.8157 11.4161ZM29.9732 4.48H30.4212V3.28H29.9732V4.48ZM29.869 4.11466L32.921 11.2967L34.0254 10.8273L30.9734 3.64534L29.869 4.11466ZM34.0255 11.2964L36.8955 4.53442L35.7909 4.06558L32.9209 10.8276L34.0255 11.2964ZM36.3432 3.7H31.5552V4.9H36.3432V3.7ZM32.1552 4.3V3.88H30.9552V4.3H32.1552ZM40.8257 11.58V10.98H40.2257V11.58H40.8257ZM45.3898 11.58V12.18H46.2962L45.9421 11.3456L45.3898 11.58ZM42.5198 4.818L43.0721 4.58358L42.5201 3.28308L41.9675 4.58334L42.5198 4.818ZM39.4677 12V12.6H39.8647L40.02 12.2347L39.4677 12ZM39.0197 12L38.4673 11.7659L38.1139 12.6H39.0197V12ZM42.5198 3.74L43.0722 3.50591L42.5198 2.20213L41.9673 3.50591L42.5198 3.74ZM46.0198 12V12.6H46.9256L46.5722 11.7659L46.0198 12ZM40.8257 12H40.2257V12.6H40.8257V12ZM40.8257 12.18H45.3898V10.98H40.8257V12.18ZM45.9421 11.3456L43.0721 4.58358L41.9674 5.05242L44.8374 11.8144L45.9421 11.3456ZM41.9675 4.58334L38.9155 11.7653L40.02 12.2347L43.072 5.05266L41.9675 4.58334ZM39.4677 11.4H39.0197V12.6H39.4677V11.4ZM39.5722 12.2341L43.0722 3.97409L41.9673 3.50591L38.4673 11.7659L39.5722 12.2341ZM41.9673 3.97409L45.4673 12.2341L46.5722 11.7659L43.0722 3.50591L41.9673 3.97409ZM46.0198 11.4H40.8257V12.6H46.0198V11.4ZM41.4257 12V11.58H40.2257V12H41.4257ZM55.9739 11.58V10.98H55.3739V11.58H55.9739ZM60.3139 11.58V12.18H61.354L60.8332 11.2796L60.3139 11.58ZM55.3019 2.914L55.8212 2.61361L54.7019 0.678128V2.914H55.3019ZM55.3019 12V12.6H55.9019V12H55.3019ZM54.8819 12H54.2819V12.6H54.8819V12ZM54.8819 2.2V1.6H54.2819V2.2H54.8819ZM55.3719 2.2L55.8913 1.89973L55.7181 1.6H55.3719V2.2ZM60.6079 11.258L60.0884 11.5583L61.2079 13.4949V11.258H60.6079ZM60.6079 2.2V1.6H60.0079V2.2H60.6079ZM61.0279 2.2H61.6279V1.6H61.0279V2.2ZM61.0279 12V12.6H61.6279V12H61.0279ZM55.9739 12H55.3739V12.6H55.9739V12ZM55.9739 12.18H60.3139V10.98H55.9739V12.18ZM60.8332 11.2796L55.8212 2.61361L54.7825 3.21439L59.7945 11.8804L60.8332 11.2796ZM54.7019 2.914V12H55.9019V2.914H54.7019ZM55.3019 11.4H54.8819V12.6H55.3019V11.4ZM55.4819 12V2.2H54.2819V12H55.4819ZM54.8819 2.8H55.3719V1.6H54.8819V2.8ZM54.8524 2.50027L60.0884 11.5583L61.1273 10.9577L55.8913 1.89973L54.8524 2.50027ZM61.2079 11.258V2.2H60.0079V11.258H61.2079ZM60.6079 2.8H61.0279V1.6H60.6079V2.8ZM60.4279 2.2V12H61.6279V2.2H60.4279ZM61.0279 11.4H55.9739V12.6H61.0279V11.4ZM56.5739 12V11.58H55.3739V12H56.5739ZM66.0219 11.58V10.98H65.4219V11.58H66.0219ZM70.5859 11.58V12.18H71.4924L71.1382 11.3456L70.5859 11.58ZM67.7159 4.818L68.2682 4.58358L67.7163 3.28308L67.1637 4.58334L67.7159 4.818ZM64.6639 12V12.6H65.0609L65.2161 12.2347L64.6639 12ZM64.2159 12L63.6635 11.7659L63.31 12.6H64.2159V12ZM67.7159 3.74L68.2684 3.50591L67.7159 2.20213L67.1635 3.50591L67.7159 3.74ZM71.2159 12V12.6H72.1218L71.7684 11.7659L71.2159 12ZM66.0219 12H65.4219V12.6H66.0219V12ZM66.0219 12.18H70.5859V10.98H66.0219V12.18ZM71.1382 11.3456L68.2682 4.58358L67.1636 5.05242L70.0336 11.8144L71.1382 11.3456ZM67.1637 4.58334L64.1117 11.7653L65.2161 12.2347L68.2681 5.05266L67.1637 4.58334ZM64.6639 11.4H64.2159V12.6H64.6639V11.4ZM64.7684 12.2341L68.2684 3.97409L67.1635 3.50591L63.6635 11.7659L64.7684 12.2341ZM67.1635 3.97409L70.6635 12.2341L71.7684 11.7659L68.2684 3.50591L67.1635 3.97409ZM71.2159 11.4H66.0219V12.6H71.2159V11.4ZM66.6219 12V11.58H65.4219V12H66.6219ZM74.3531 3.88V3.28H73.7531V3.88H74.3531ZM74.7731 3.88H75.3731V3.28H74.7731V3.88ZM74.7731 12V12.6H75.3731V12H74.7731ZM74.3531 12H73.7531V12.6H74.3531V12ZM74.3531 4.48H74.7731V3.28H74.3531V4.48ZM74.1731 3.88V12H75.3731V3.88H74.1731ZM74.7731 11.4H74.3531V12.6H74.7731V11.4ZM74.9531 12V3.88H73.7531V12H74.9531ZM78.9693 12H78.3693V12.6H78.9693V12ZM78.9693 3.88V3.28H78.3693V3.88H78.9693ZM79.3893 3.88H79.9893V3.28H79.3893V3.88ZM79.3893 12V12.6H79.9893V12H79.3893ZM84.1493 12L83.7264 12.4256L83.9019 12.6H84.1493V12ZM79.8373 7.716L79.4146 7.2902L78.9858 7.71584L79.4144 8.14164L79.8373 7.716ZM83.7013 3.88V3.28H83.454L83.2786 3.4542L83.7013 3.88ZM84.3033 3.88L84.726 4.3058L85.7593 3.28H84.3033V3.88ZM80.4393 7.716L80.0166 7.2902L79.5878 7.71584L80.0164 8.14164L80.4393 7.716ZM84.7513 12V12.6H86.2065L85.1742 11.5744L84.7513 12ZM79.5693 12V3.88H78.3693V12H79.5693ZM78.9693 4.48H79.3893V3.28H78.9693V4.48ZM78.7893 3.88V12H79.9893V3.88H78.7893ZM79.3893 11.4H78.9693V12.6H79.3893V11.4ZM84.5722 11.5744L80.2602 7.29036L79.4144 8.14164L83.7264 12.4256L84.5722 11.5744ZM80.26 8.1418L84.124 4.3058L83.2786 3.4542L79.4146 7.2902L80.26 8.1418ZM83.7013 4.48H84.3033V3.28H83.7013V4.48ZM83.8806 3.4542L80.0166 7.2902L80.862 8.1418L84.726 4.3058L83.8806 3.4542ZM80.0164 8.14164L84.3284 12.4256L85.1742 11.5744L80.8622 7.29036L80.0164 8.14164ZM84.7513 11.4H84.1493V12.6H84.7513V11.4Z" class="logo-outer" fill="black" mask="url(#path-1-outside-1_4_14)"/>
</svg>
